<?xml version="1.0" encoding="UTF-8" standalone="no"?>
<svg width="auto" height="40px" viewBox="0 0 195 51" version="1.1" xmlns="http://www.w3.org/2000/svg" xmlns:xlink="http://www.w3.org/1999/xlink">
    <!-- Generator: Sketch 44.1 (41455) - http://www.bohemiancoding.com/sketch -->
    <title>Desktop HD</title>
    <desc>Created with Sketch.</desc>
    <defs></defs>
    <g id="Web" stroke="none" stroke-width="1" fill="none" fill-rule="evenodd">
        <g id="Desktop-HD" transform="translate(-53.000000, -50.000000)">
            <g id="Group-4" transform="translate(53.000000, 50.000000)">
                <rect id="Rectangle-7" fill="#89FFE4" x="0" y="0" width="7.84923439" height="50.6921529"></rect>
                <ellipse id="Oval-3" stroke="#3894FF" stroke-width="7.8336" opacity="0.5" cx="16.1601885" cy="34.4064386" rx="12.2355713" ry="12.1569416"></ellipse>
                <ellipse id="Oval-3" stroke="#FFE800" stroke-width="7.8336" cx="51.0200236" cy="34.4064386" rx="12.2355713" ry="12.1569416"></ellipse>
                <path d="M74.0981899,46.5568896 L98.8158266,46.5474692 C98.8158266,43.6950063 98.8158266,41.8861411 98.8158266,34.5211268 C98.8158266,27.7589774 93.2882277,22.2669006 86.4570082,22.2669006 C79.6257888,22.2669006 74.0981899,27.7589774 74.0981899,34.5211268 C74.0981899,41.7715645 74.0981899,43.5522615 74.0981899,46.7130298 L74.0981899,46.5568896 Z" id="Rectangle-8" stroke="#FF7070" stroke-width="7.8336"></path>
                <g id="Group-2" transform="translate(105.733804, 3.899396)">
                    <rect id="Rectangle" fill="#FFE800" x="0" y="14.4507042" width="14.7750294" height="7.79879276"></rect>
                    <path d="M7.15665489,46.5633803 L7.15665489,6.19315895 C7.15665489,2.77277171 9.74064161,8.14908168e-16 12.9281508,0" id="Rectangle-9" stroke="#3894FF" stroke-width="7.8336" opacity="0.5"></path>
                </g>
                <rect id="Rectangle-10" fill="#F6A023" x="124.664311" y="18.3501006" width="7.84923439" height="32.1126761"></rect>
                <g id="Group-3" transform="translate(135.745583, 18.350101)">
                    <path d="M4.14765984,33.2572777 L20.6954629,7.05899075 C18.9312514,5.0963569 16.383011,3.9168 13.6207303,3.9168 C8.38326536,3.9168 4.14765984,8.1251862 4.14765984,13.3038229 L4.14765984,33.2572777 Z" id="Rectangle-11" stroke="#FF7070" stroke-width="7.8336"></path>
                    <rect id="Rectangle-12" fill="#FFFFFF" x="0" y="32.1126761" width="9.2343934" height="21.0301811"></rect>
                </g>
                <g id="Group" transform="translate(161.599333, 17.661972)">
                    <rect id="Rectangle" fill="#FFE800" transform="translate(16.953800, 16.692601) rotate(-16.000000) translate(-16.953800, -16.692601) " x="0.678181707" y="12.7932044" width="32.5512367" height="7.79879276"></rect>
                    <path d="M28.9731418,19.0317447 C29.0840659,18.452836 29.1536726,17.8593765 29.1787977,17.25451 C29.1858237,17.0853647 29.1893713,16.9153274 29.1893713,16.7444668 C29.1893713,10.0303733 23.7113195,4.58752515 16.9538001,4.58752515 C10.1962807,4.58752515 4.71822882,10.0303733 4.71822882,16.7444668 C4.71822882,23.4585603 10.1962807,28.9014085 16.9538001,28.9014085 L16.9538001,28.9014085 C21.4135624,28.9014085 25.3160388,26.5307169 27.4543158,22.9884913" id="Oval-3" stroke="#13FFCB" stroke-width="7.8336" opacity="0.5"></path>
                    <ellipse id="Oval" stroke="#FFFFFF" stroke-width="1.6128" cx="16.9681979" cy="16.8591549" rx="16.9681979" ry="16.8591549"></ellipse>
                    <polygon id="Path-4" fill="#FFFFFF" points="22.8551237 19.0382294 23.3168433 20.6438632 33.9363958 24.5432596 34.3981154 15.8269618"></polygon>
                </g>
            </g>
        </g>
    </g>
</svg>
