<?xml version="1.0" encoding="UTF-8" standalone="no"?>
<svg width="44px" height="53px" viewBox="0 0 44 53" version="1.1" xmlns="http://www.w3.org/2000/svg" xmlns:xlink="http://www.w3.org/1999/xlink">
    <!-- Generator: Sketch 44.1 (41455) - http://www.bohemiancoding.com/sketch -->
    <title>Desktop HD</title>
    <desc>Created with Sketch.</desc>
    <defs></defs>
    <g id="Web" stroke="none" stroke-width="1" fill="none" fill-rule="evenodd">
        <g id="Desktop-HD" transform="translate(-1334.000000, -50.000000)" stroke="#212121" stroke-width="3.456">
            <g id="Monocle" transform="translate(1335.000000, 50.000000)">
                <rect id="Rectangle-4" x="1.728" y="17.6384189" width="38.684" height="1" rx="0.5"></rect>
                <path d="M12.7685663,-2.87732308 L12.3615423,22.2486362 C14.1763105,22.2486362 15.0309023,22.2486362 19.225611,22.2486362 C27.097558,22.2486362 30.2546479,17.8598976 26.9569289,12.0798825 C26.9289064,12.0343076 26.881861,11.9570639 26.8219491,11.8574541 C26.7221595,11.6915438 26.6222375,11.5225169 26.527962,11.3589424 C26.5045601,11.3182779 26.5045601,11.3182779 26.4810814,11.2772177 C26.364102,11.0722885 26.2659085,10.8926044 26.1882095,10.7382933 C26.1346532,10.6319299 26.0896357,10.5354968 26.0511101,10.4409414 C25.9487418,10.1896934 25.8932741,10.0016005 25.8932741,9.68565657 C25.8932741,9.36971266 25.9487418,9.18161969 26.0511101,8.93037171 C26.0896357,8.83581632 26.1346532,8.73938327 26.1882095,8.63301979 C26.2659085,8.47870877 26.364102,8.29902467 26.4810814,8.0940954 C26.5045601,8.05303522 26.5045601,8.05303522 26.527962,8.01237077 C26.6222375,7.84879623 26.7221595,7.67976936 26.8219491,7.513859 C26.881861,7.41424921 26.9289064,7.3370055 26.9267678,7.3424226 C30.243541,1.50894369 27.0908909,-2.87732308 19.2135574,-2.87732308 L12.7685663,-2.87732308 Z" id="Rectangle-3" transform="translate(20.290980, 9.685657) rotate(270.000000) translate(-20.290980, -9.685657) "></path>
                <path d="M26.9317089,40.783384 C26.9317089,40.783384 31.9958107,47.9489463 31.0286533,50.1632269 C30.061496,52.3775074 23.8819628,52.5607591 22.8347645,50.1632269 C21.7875661,47.7656946 26.9317089,40.783384 26.9317089,40.783384 Z" id="Triangle" transform="translate(26.922778, 46.338361) rotate(270.000000) translate(-26.922778, -46.338361) "></path>
                <path d="M15.2261533,40.783384 C15.2261533,40.783384 20.2902552,47.9489463 19.3230978,50.1632269 C18.3559404,52.3775074 12.1764073,52.5607591 11.1292089,50.1632269 C10.0820105,47.7656946 15.2261533,40.783384 15.2261533,40.783384 Z" id="Triangle" transform="translate(15.217222, 46.338361) rotate(90.000000) translate(-15.217222, -46.338361) "></path>
                <path d="M14.0910369,24.6837486 C15.8742768,25.8601744 16.3973122,28.3107873 15.2583461,30.1527129 C14.1194423,31.9946385 11.747054,32.5349702 9.96381404,31.35848 C8.18063653,30.1819897 7.65760109,27.7314413 8.79650482,25.8895157 C9.93547099,24.0475256 12.3078593,23.5072584 14.0910369,24.6837486 Z" id="Stroke-1" stroke-linecap="round" stroke-linejoin="round"></path>
            </g>
        </g>
    </g>
</svg>